<svg class="ldi-sqtf14" width="200px"  height="200px"  xmlns="http://www.w3.org/2000/svg" xmlns:xlink="http://www.w3.org/1999/xlink" viewBox="0 0 100 100" preserveAspectRatio="xMidYMid" style="background: none;"><!--?xml version="1.0" encoding="utf-8"?--><!--Generator: Adobe Illustrator 21.0.0, SVG Export Plug-In . SVG Version: 6.00 Build 0)--><svg version="1.1" id="Layer_1" xmlns="http://www.w3.org/2000/svg" xmlns:xlink="http://www.w3.org/1999/xlink" x="0px" y="0px" viewBox="0 0 100 100" style="transform-origin: 50px 50px 0px;" xml:space="preserve"><g style="transform-origin: 50px 50px 0px;"><g style="transform-origin: 50px 50px 0px; transform: scale(0.6);"><g style="transform-origin: 50px 50px 0px;"><g><style type="text/css" class="ld ld-breath" style="transform-origin: 50px 50px 0px; animation-duration: 1s; animation-delay: -1s; animation-direction: normal;">.st0{fill:#F4E6C8;} .st1{fill:#333333;} .st2{fill:#E0E0E0;} .st3{fill:#E15C64;} .st4{fill:#C33837;} .st5{fill:#D65A62;} .st6{fill:none;} .st7{fill:#F7B26A;} .st8{fill:#F47E5F;} .st9{opacity:0.2;fill:#353035;} .st10{fill:#666766;} .st11{fill:#A0C8D7;} .st12{fill:#77A4BD;} .st13{fill:#ACBD81;} .st14{fill:#FFFFFF;} .st15{fill:#849B87;} .st16{fill:none;stroke:#E0E0E0;stroke-width:4;stroke-miterlimit:10;} .st17{fill:none;stroke:#333333;stroke-width:4;stroke-miterlimit:10;} .st18{fill:#FFFFFF;stroke:#333333;stroke-width:4;stroke-miterlimit:10;} .st19{fill:none;stroke:#000000;stroke-width:4;stroke-miterlimit:10;} .st20{fill:#FFFFFF;stroke:#000000;stroke-width:4;stroke-miterlimit:10;} .st21{fill:#010101;} .st22{fill:#A5A6A6;} .st23{fill:#666666;} .st24{fill:#F3E4C7;} .st25{fill:none;stroke:#FFFFFF;stroke-linecap:round;stroke-miterlimit:10;} .st26{fill:#353035;} .st27{fill:#B93A38;} .st28{fill:#EA7C60;} .st29{fill:#E0E0E0;stroke:#F7B26A;stroke-width:8;stroke-miterlimit:10;} .st30{fill:none;stroke:#F7B26A;stroke-width:10;stroke-linecap:round;stroke-miterlimit:10;} .st31{fill:none;stroke:#010101;stroke-width:8;stroke-miterlimit:10;} .st32{fill:#F0AF6B;stroke:#010101;stroke-width:8;stroke-miterlimit:10;} .st33{fill:#829985;} .st34{fill:#A8B980;} .st35{fill:#F0AF6B;} .st36{fill:#4A3827;} .st37{fill:#332518;} .st38{fill:#E6E6E6;}</style><g class="ld ld-breath" style="transform-origin: 50px 50px 0px; animation-duration: 1s; animation-delay: -0.961538s; animation-direction: normal;"><rect x="12.9" y="22.8" class="st2" width="64.5" height="41.7" fill="#e0e0e0" style="fill: rgb(224, 224, 224);"></rect></g><g class="ld ld-breath" style="transform-origin: 50px 50px 0px; animation-duration: 1s; animation-delay: -0.923077s; animation-direction: normal;"><rect x="12.9" y="22.8" class="st6" width="64.5" height="41.7"></rect></g><g class="ld ld-breath" style="transform-origin: 50px 50px 0px; animation-duration: 1s; animation-delay: -0.884615s; animation-direction: normal;"><path d="M77.9,17.6c-0.3-0.1-0.6-0.1-1-0.1H13.3c-2.8,0-5.2,2-5.7,4.6v43.1c0.1,0.7,0.4,1.3,0.7,1.8c1,1.7,2.9,2.8,5,2.8h14.5v0 h32.7v0H77c3.2,0,5.8-2.6,5.8-5.8V23.3C82.8,20.4,80.7,18,77.9,17.6z M77.4,64.5H12.9V22.8h64.5V64.5z" fill="#444466" style="fill: rgb(68, 68, 102);"></path></g><g class="ld ld-breath" style="transform-origin: 50px 50px 0px; animation-duration: 1s; animation-delay: -0.846154s; animation-direction: normal;"><circle class="st6" cx="72.7" cy="82.2" r="1.4"></circle></g><g class="ld ld-breath" style="transform-origin: 50px 50px 0px; animation-duration: 1s; animation-delay: -0.807692s; animation-direction: normal;"><circle class="st6" cx="26.2" cy="75.5" r="0.4"></circle></g><g class="ld ld-breath" style="transform-origin: 50px 50px 0px; animation-duration: 1s; animation-delay: -0.769231s; animation-direction: normal;"><path class="st21" d="M7.5,23.3v40.8c0,0.4,0,0.8,0.1,1.2V22.1C7.5,22.5,7.5,22.9,7.5,23.3z" fill="#444466" stroke="#444466" style="fill: rgb(68, 68, 102); stroke: rgb(68, 68, 102);"></path></g><g class="ld ld-breath" style="transform-origin: 50px 50px 0px; animation-duration: 1s; animation-delay: -0.730769s; animation-direction: normal;"><path class="st2" d="M7.6,67.1h0.7c-0.3-0.6-0.6-1.2-0.7-1.8V67.1z" fill="#e0e0e0" style="fill: rgb(224, 224, 224);"></path></g><g class="ld ld-breath" style="transform-origin: 50px 50px 0px; animation-duration: 1s; animation-delay: -0.692308s; animation-direction: normal;"><rect x="64.3" y="42" class="st2" width="25.1" height="34.1" fill="#e0e0e0" style="fill: rgb(224, 224, 224);"></rect></g><g class="ld ld-breath" style="transform-origin: 50px 50px 0px; animation-duration: 1s; animation-delay: -0.653846s; animation-direction: normal;"><rect x="64.3" y="42" class="st6" width="25.1" height="34.1"></rect></g><g class="ld ld-breath" style="transform-origin: 50px 50px 0px; animation-duration: 1s; animation-delay: -0.615385s; animation-direction: normal;"><rect x="64.3" y="42" class="st6" width="25.1" height="34.1"></rect></g><g class="ld ld-breath" style="transform-origin: 50px 50px 0px; animation-duration: 1s; animation-delay: -0.576923s; animation-direction: normal;"><circle class="st23" cx="76.8" cy="79.3" r="1.7" stroke="#444466" fill="#446" style="stroke: rgb(68, 68, 102); fill: rgb(68, 68, 102);"></circle></g><g class="ld ld-breath" style="transform-origin: 50px 50px 0px; animation-duration: 1s; animation-delay: -0.538462s; animation-direction: normal;"><path class="st1" d="M89.5,37.2H64.2c-1.6,0-3,1.3-3,3v37.5v1.8c0,1.6,1.3,3,3,3h8h1.9h5.8h9.7c1.6,0,3-1.3,3-3v-1.8V40.2 C92.5,38.6,91.2,37.2,89.5,37.2z M76.8,81c-0.9,0-1.7-0.8-1.7-1.7c0-0.9,0.8-1.7,1.7-1.7c0.9,0,1.7,0.8,1.7,1.7 C78.5,80.2,77.8,81,76.8,81z M89.4,76.1H64.3V42h25.1V76.1z" fill="#444466" style="fill: rgb(68, 68, 102);"></path></g><g class="ld ld-breath" style="transform-origin: 50px 50px 0px; animation-duration: 1s; animation-delay: -0.5s; animation-direction: normal;"><polygon class="st2" points="17.3,79.5 20.4,79.5 24.9,79.5 27.8,79.5 27.8,63.3 17.3,63.3 " fill="#e0e0e0" style="fill: rgb(224, 224, 224);"></polygon></g><g class="ld ld-breath" style="transform-origin: 50px 50px 0px; animation-duration: 1s; animation-delay: -0.461538s; animation-direction: normal;"><path class="st1" d="M27.8,61.1H17.2c-0.8,0-1.4,0.6-1.4,1.4v18.6c0,0.8,0.6,1.4,1.4,1.4h3.2h4.4h3c0.8,0,1.4-0.6,1.4-1.4V62.5 C29.2,61.7,28.6,61.1,27.8,61.1z M27.8,79.5h-2.9h-4.4h-3.1V63.3h10.5V79.5z" fill="#444466" style="fill: rgb(68, 68, 102);"></path></g><g class="ld ld-breath" style="transform-origin: 50px 50px 0px; animation-duration: 1s; animation-delay: -0.423077s; animation-direction: normal;"><polygon class="st1" points="50.2,69.9 39.9,69.9 37.3,78 52.8,78 " fill="#444466" style="fill: rgb(68, 68, 102);"></polygon></g><g class="ld ld-breath" style="transform-origin: 50px 50px 0px; animation-duration: 1s; animation-delay: -0.384615s; animation-direction: normal;"><path d="M34.4,78c-1.2,0-2.3,1-2.3,2.2v0c0,1.2,1,2.2,2.3,2.2h21.6c1.2,0,2.3-1,2.3-2.2v0c0-1.2-1-2.2-2.3-2.2h-3.1l0,0H37.3l0,0 H34.4z" fill="#444466" style="fill: rgb(68, 68, 102);"></path></g><metadata xmlns:d="https://loading.io/stock/" class="ld ld-breath" style="transform-origin: 50px 50px 0px; animation-duration: 1s; animation-delay: -0.346154s; animation-direction: normal;">
<d:name class="ld ld-breath" style="transform-origin: 50px 50px 0px; animation-duration: 1s; animation-delay: -0.307692s; animation-direction: normal;">responsive</d:name>
<d:tags class="ld ld-breath" style="transform-origin: 50px 50px 0px; animation-duration: 1s; animation-delay: -0.269231s; animation-direction: normal;">cross platform,device,adapative design,mobile,screen,responsive,web application</d:tags>
<d:license class="ld ld-breath" style="transform-origin: 50px 50px 0px; animation-duration: 1s; animation-delay: -0.230769s; animation-direction: normal;">rf</d:license>
<d:slug class="ld ld-breath" style="transform-origin: 50px 50px 0px; animation-duration: 1s; animation-delay: -0.192308s; animation-direction: normal;">sqtf14</d:slug>
</metadata></g></g></g></g><style type="text/css" class="ld ld-breath" style="transform-origin: 50px 50px 0px; animation-duration: 1s; animation-delay: -0.153846s; animation-direction: normal;">path,ellipse,circle,rect,polygon,polyline,line { stroke-width: 0; }@keyframes ld-breath {
  0% {
    -webkit-transform: scale(0.86);
    transform: scale(0.86);
  }
  50% {
    -webkit-transform: scale(1.06);
    transform: scale(1.06);
  }
  100% {
    -webkit-transform: scale(0.86);
    transform: scale(0.86);
  }
}
@-webkit-keyframes ld-breath {
  0% {
    -webkit-transform: scale(0.86);
    transform: scale(0.86);
  }
  50% {
    -webkit-transform: scale(1.06);
    transform: scale(1.06);
  }
  100% {
    -webkit-transform: scale(0.86);
    transform: scale(0.86);
  }
}
.ld.ld-breath {
  -webkit-animation: ld-breath 1s infinite;
  animation: ld-breath 1s infinite;
}
</style></svg></svg>